PathFileType	4	(X/Y/Z)	/Users/itak/Documents/Research/Walk-IL/dataset/trc/00274_00010.trc
DataRate	CameraRate	NumFrames	NumMarkers	Units	OrigDataRate	OrigDataStartFrame	OrigNumFrames
100.000000	100.000000	4	53	mm	100.000000	503	575
Frame#	Time	RPSI			LPSI			L3			STRN			T10			C7			CLAV			RBAK			LBAK			LSHO			LUPA			LAEL			LAOL			LWTS			LWPS			LFRA			LIFD			LHPS			LHTS			RSHO			RUPA			RAEL			RAOL			RWTS			RWPS			RFRA			RIFD			RHTS			RHPS			RBHD			LFHD			RFHD			LBHD			LHIP			RHIP			RASI			LASI			LKNE			LTHI			LANK			LTIP			LTOE			LMT1			LMT5			LHEE			RKNE			RTHI			RANK			RTIP			RTOE			RMT1			RMT5			RHEE			
		X1	Y1	Z1	X2	Y2	Z2	X3	Y3	Z3	X4	Y4	Z4	X5	Y5	Z5	X6	Y6	Z6	X7	Y7	Z7	X8	Y8	Z8	X9	Y9	Z9	X10	Y10	Z10	X11	Y11	Z11	X12	Y12	Z12	X13	Y13	Z13	X14	Y14	Z14	X15	Y15	Z15	X16	Y16	Z16	X17	Y17	Z17	X18	Y18	Z18	X19	Y19	Z19	X20	Y20	Z20	X21	Y21	Z21	X22	Y22	Z22	X23	Y23	Z23	X24	Y24	Z24	X25	Y25	Z25	X26	Y26	Z26	X27	Y27	Z27	X28	Y28	Z28	X29	Y29	Z29	X30	Y30	Z30	X31	Y31	Z31	X32	Y32	Z32	X33	Y33	Z33	X34	Y34	Z34	X35	Y35	Z35	X36	Y36	Z36	X37	Y37	Z37	X38	Y38	Z38	X39	Y39	Z39	X40	Y40	Z40	X41	Y41	Z41	X42	Y42	Z42	X43	Y43	Z43	X44	Y44	Z44	X45	Y45	Z45	X46	Y46	Z46	X47	Y47	Z47	X48	Y48	Z48	X49	Y49	Z49	X50	Y50	Z50	X51	Y51	Z51	X52	Y52	Z52	X53	Y53	Z53	

504	5.03	-1253.592895507812	1004.323181152344	60.33647537231445	-1241.95458984375	992.8928833007812	-113.2121429443359	-1222.464233398438	1077.126708984375	-23.26309394836426	-955.5504760742188	1235.441040039062	-23.33451271057129	-1227.289794921875	1194.726928710938	-16.95397758483887	-1160.84814453125	1435.281616210938	-27.44096565246582	-1010.731628417969	1339.803588867188	-25.37406158447266	-1220.669921875	1302.228515625	47.61270904541016	-1184.03125	1401.418701171875	-131.4094390869141	-1094.208129882812	1403.912353515625	-185.4864959716797	-1138.055053710938	1295.96533203125	-264.328857421875	-1161.884155273438	1098.221069335938	-295.1211853027344	-1222.5986328125	1086.4931640625	-233.5496978759766	-1096.421752929688	873.132080078125	-280.6905822753906	-1140.415771484375	869.6115112304688	-339.0167236328125	-1159.812133789062	996.2568969726562	-315.0790405273438	-1107.754272460938	687.2447509765625	-297.85986328125	-1140.873291015625	781.1279907226562	-346.0020751953125	-1081.830078125	776.4982299804688	-315.8296203613281	-1088.873779296875	1403.300048828125	127.7566299438477	-1099.279907226562	1346.989013671875	194.2830963134766	-1147.381103515625	1091.777709960938	260.5358276367188	-1178.811645507812	1079.600341796875	170.2730102539062	-1094.919677734375	849.012451171875	241.271484375	-1142.081787109375	863.4804077148438	311.2250671386719	-1137.753662109375	1024.660034179688	281.6751403808594	-1127.409912109375	669.1083984375	265.7087707519531	-1089.644409179688	734.4378051757812	276.8632507324219	-1140.855224609375	749.888671875	323.4310913085938	-1098.191772460938	1578.506958007812	67.37090301513672	-991.7235717773438	1633.978271484375	-108.4388580322266	-954.996826171875	1627.1220703125	-23.47145652770996	-1155.329223632812	1579.028564453125	-68.90672302246094	-1163.950927734375	948.3712768554688	-203.1108703613281	-1161.582153320312	951.6345825195312	172.0065307617188	-1035.7783203125	954.04052734375	108.7680740356445	-1032.636352539062	959.5403442382812	-140.9820098876953	-961.9364013671875	511.113037109375	-201.6476898193359	-1014.835083007812	646.5147094726562	-211.6993865966797	-1187.2861328125	109.4437561035156	-225.2852783203125	-1072.619873046875	306.2185668945312	-226.8841552734375	-1001.326416015625	60.62325668334961	-135.5765533447266	-1076.265014648438	62.83073425292969	-106.6787414550781	-1069.502197265625	75.81194305419922	-217.5329284667969	-1241.295288085938	118.4797210693359	-174.4397277832031	-1140.763549804688	476.7550659179688	110.3760375976562	-1104.931396484375	736.864990234375	159.4253387451172	-1254.487915039062	46.26462936401367	54.74520492553711	-1144.57177734375	352.182373046875	85.61973571777344	-1062.0849609375	50.67698287963867	-11.80643558502197	-1121.602416992188	46.22879028320312	-47.6860466003418	-1147.015747070312	41.6219482421875	68.66721343994141	-1310.777954101562	45.14847946166992	7.043984889984131	
505	5.04	-1255.778930664062	1004.601135253906	59.90287399291992	-1243.8330078125	993.1768798828125	-113.6470260620117	-1224.603881835938	1077.238159179688	-23.74303245544434	-957.99267578125	1235.93212890625	-22.79429626464844	-1229.677978515625	1194.765991210938	-17.52321434020996	-1163.606811523438	1435.488159179688	-27.70386123657227	-1013.650512695312	1340.177124023438	-25.05399703979492	-1223.48291015625	1302.222412109375	47.00309753417969	-1186.2099609375	1401.601318359375	-131.8252716064453	-1096.0966796875	1404.201171875	-185.4197235107422	-1139.18994140625	1296.101318359375	-264.4771728515625	-1162.430419921875	1098.387939453125	-295.4049987792969	-1223.415405273438	1086.474853515625	-234.1488952636719	-1098.244262695312	872.61962890625	-281.0485229492188	-1141.802856445312	869.8651733398438	-339.8013000488281	-1160.603515625	996.3790283203125	-315.5807800292969	-1111.016357421875	686.9014892578125	-300.0050048828125	-1142.885009765625	781.5814208984375	-347.5475463867188	-1084.119384765625	776.111572265625	-316.7912292480469	-1092.339477539062	1403.648681640625	127.8234405517578	-1103.171875	1347.637573242188	194.4386291503906	-1153.005249023438	1092.925048828125	261.0667419433594	-1183.780639648438	1080.607299804688	170.6432495117188	-1101.757080078125	849.6906127929688	243.0208892822266	-1149.450317382812	864.7716064453125	312.5673217773438	-1143.826416015625	1025.843872070312	282.5255737304688	-1136.944458007812	670.1200561523438	267.3110046386719	-1098.40625	735.0048217773438	278.7183532714844	-1149.70703125	751.1920776367188	324.970703125	-1101.036743164062	1578.695678710938	67.71598052978516	-994.7236328125	1634.493896484375	-108.092041015625	-957.9390869140625	1627.598510742188	-23.18764305114746	-1158.233642578125	1579.2353515625	-68.50141906738281	-1165.862060546875	948.4188842773438	-203.444091796875	-1163.763671875	951.861328125	171.6328125	-1038.031127929688	954.2704467773438	108.5172958374023	-1034.713256835938	959.481201171875	-141.1536712646484	-969.333740234375	508.8701171875	-201.8559722900391	-1020.166015625	645.0050659179688	-211.9179840087891	-1198.6611328125	109.7046127319336	-225.4512176513672	-1082.123291015625	305.1492614746094	-227.0678100585938	-1012.661926269531	60.04633331298828	-136.4197540283203	-1087.45166015625	62.26990127563477	-107.3337249755859	-1080.972778320312	75.81870269775391	-218.0956726074219	-1252.584106445312	118.6706314086914	-174.4624481201172	-1142.106323242188	477.046630859375	110.3076629638672	-1106.906860351562	737.2666015625	159.3248596191406	-1254.513793945312	46.23167037963867	54.77086639404297	-1145.52587890625	352.4889221191406	85.63024139404297	-1062.0927734375	50.67334747314453	-11.80794906616211	-1121.614624023438	46.22697830200195	-47.68497467041016	-1147.031005859375	41.60870361328125	68.69580078125	-1310.791748046875	45.08662033081055	7.071979999542236	
506	5.05	-1257.875854492188	1004.883361816406	59.45172882080078	-1245.63623046875	993.4921264648438	-114.0966415405273	-1226.67724609375	1077.355834960938	-24.2405834197998	-960.3564453125	1236.416381835938	-22.2849006652832	-1231.967041015625	1194.824951171875	-18.12472152709961	-1166.265747070312	1435.699462890625	-28.02972602844238	-1016.477478027344	1340.546875	-24.77815628051758	-1226.226928710938	1302.248168945312	46.35207748413086	-1188.285034179688	1401.782836914062	-132.2923583984375	-1097.888305664062	1404.476928710938	-185.4130706787109	-1140.303955078125	1296.222900390625	-264.6712951660156	-1163.075927734375	1098.5439453125	-295.6724243164062	-1224.255615234375	1086.48193359375	-234.6630859375	-1099.9794921875	872.1629028320312	-281.3843078613281	-1143.258544921875	870.0445556640625	-340.4051818847656	-1161.513061523438	996.4627075195312	-316.004150390625	-1113.962646484375	686.627685546875	-301.8121643066406	-1144.881469726562	781.9414672851562	-348.758544921875	-1086.28955078125	775.7830810546875	-317.64404296875	-1095.714233398438	1403.997436523438	127.8342132568359	-1106.954345703125	1348.286010742188	194.531982421875	-1158.411499023438	1094.043579101562	261.5266723632812	-1188.648681640625	1081.601928710938	170.9906311035156	-1108.351318359375	850.3992309570312	244.51318359375	-1156.415283203125	866.0172729492188	313.714111328125	-1149.642456054688	1026.992309570312	283.2654113769531	-1145.7509765625	671.1409912109375	268.6194152832031	-1106.544189453125	735.6436157226562	280.2812805175781	-1157.93017578125	752.468994140625	326.2817077636719	-1103.816040039062	1578.875366210938	67.98710632324219	-997.6542358398438	1635.016723632812	-107.8080291748047	-960.8185424804688	1628.098022460938	-22.96505737304688	-1161.060302734375	1579.409790039062	-68.17830657958984	-1167.72900390625	948.5003662109375	-203.8136291503906	-1165.850952148438	952.0865478515625	171.2273254394531	-1040.213623046875	954.4869995117188	108.2238311767578	-1036.708129882812	959.4281005859375	-141.3758239746094	-976.97314453125	506.6759948730469	-202.1952972412109	-1025.723266601562	643.5007934570312	-212.2343597412109	-1209.509887695312	109.6162719726562	-225.4903564453125	-1091.494384765625	303.9516296386719	-227.2439575195312	-1023.343139648438	59.4234504699707	-137.2604827880859	-1097.963012695312	61.57926559448242	-107.9271545410156	-1091.865112304688	75.63607788085938	-218.6069488525391	-1263.32861328125	118.4572830200195	-174.3304290771484	-1143.371215820312	477.3195190429688	110.2212066650391	-1108.779541015625	737.6599731445312	159.2020568847656	-1254.534057617188	46.19653701782227	54.80406951904297	-1146.390502929688	352.7731628417969	85.62983703613281	-1062.098022460938	50.66811752319336	-11.80889797210693	-1121.625366210938	46.22647857666016	-47.68023300170898	-1147.038330078125	41.60190582275391	68.71042633056641	-1310.803833007812	45.03452682495117	7.104805946350098	
507	5.06	-1259.884521484375	1005.165893554688	58.98665618896484	-1247.3671875	993.8469848632812	-114.5602569580078	-1228.686645507812	1077.478515625	-24.7640380859375	-962.6466674804688	1236.89892578125	-21.80822563171387	-1234.174438476562	1194.906494140625	-18.76538467407227	-1168.835205078125	1435.9169921875	-28.4164981842041	-1019.201843261719	1340.91796875	-24.54031944274902	-1228.906616210938	1302.300537109375	45.65916061401367	-1190.2685546875	1401.968017578125	-132.8081359863281	-1099.599731445312	1404.743530273438	-185.4665222167969	-1141.401489257812	1296.340209960938	-264.9112854003906	-1163.8173828125	1098.694213867188	-295.9294128417969	-1225.125	1086.520385742188	-235.1085815429688	-1101.624267578125	871.7796020507812	-281.7004699707031	-1144.768432617188	870.1517944335938	-340.8375549316406	-1162.531372070312	996.5162963867188	-316.361572265625	-1116.583740234375	686.4220581054688	-303.2196960449219	-1146.848754882812	782.19580078125	-349.6229248046875	-1088.330444335938	775.5159301757812	-318.3556213378906	-1099.004516601562	1404.346313476562	127.7897491455078	-1110.630249023438	1348.93310546875	194.5627746582031	-1163.596435546875	1095.126586914062	261.9023132324219	-1193.393920898438	1082.580932617188	171.2871551513672	-1114.694213867188	851.1236572265625	245.7561340332031	-1162.977661132812	867.21435546875	314.6618347167969	-1155.20751953125	1028.101318359375	283.8818969726562	-1153.84375	672.1431884765625	269.6759948730469	-1114.070190429688	736.3310546875	281.5778503417969	-1165.544189453125	753.7091674804688	327.3721618652344	-1106.53271484375	1579.052001953125	68.18173980712891	-1000.516296386719	1635.543701171875	-107.5877380371094	-963.6358642578125	1628.614013671875	-22.79890441894531	-1163.811157226562	1579.565551757812	-67.93901062011719	-1169.545776367188	948.6318359375	-204.2165985107422	-1167.843505859375	952.3135986328125	170.7928466796875	-1042.328369140625	954.6922607421875	107.8871383666992	-1038.591918945312	959.4000244140625	-141.6519622802734	-984.8268432617188	504.5628356933594	-202.6585540771484	-1031.49609375	642.0350952148438	-212.6403503417969	-1219.823608398438	109.1826553344727	-225.4086608886719	-1100.705078125	302.6389770507812	-227.4087219238281	-1033.355712890625	58.77156066894531	-138.0511016845703	-1107.80078125	60.77590560913086	-108.4237899780273	-1102.15966796875	75.26482391357422	-219.0329742431641	-1273.522094726562	117.8439483642578	-174.0587921142578	-1144.569946289062	477.579345703125	110.1212387084961	-1110.565063476562	738.03564453125	159.0444793701172	-1254.549682617188	46.15913391113281	54.84637832641602	-1147.190307617188	353.0444030761719	85.61887359619141	-1062.103393554688	50.66236877441406	-11.80763721466064	-1121.639404296875	46.22813034057617	-47.66793060302734	-1147.039428710938	41.59973526000977	68.71389770507812	-1310.814331054688	44.98947525024414	7.143885612487793	
